# 3ds Max Wavefront OBJ Exporter v0.99 - (c)2007 guruware
# File Created: 11.04.2024 13:43:07

mtllib Porygon.mtl

#
# object Porygon
#

v  -12.5667 5.1299 13.6094
v  -12.5667 5.1299 -21.5943
v  13.0148 5.1299 -21.5943
v  13.0148 5.1299 13.6094
v  -8.7134 60.4772 24.5990
v  8.6577 60.4772 24.5990
v  8.6577 60.4772 1.8748
v  -8.7134 60.4772 1.8748
v  25.2595 20.9461 36.0581
v  -25.8319 20.9461 36.0581
v  25.2595 20.9461 16.1101
v  25.2595 20.9461 -30.7779
v  -12.3565 52.0643 27.0378
v  -22.2161 30.0907 19.7833
v  -25.8319 20.9461 16.6686
v  -25.8319 20.9461 -30.7779
v  -25.8319 26.8134 -30.7779
v  25.2595 26.8134 -30.7779
v  15.2897 47.0294 -11.1691
v  -15.4027 47.3226 -10.8847
v  21.9816 29.5218 20.5307
v  12.2187 51.9980 27.0570
v  21.4180 55.1575 26.5935
v  21.4180 73.3206 27.9906
v  19.3222 77.5121 37.7707
v  17.9251 71.2249 53.8381
v  17.9251 55.1575 55.2352
v  21.4180 81.0050 18.9091
v  13.7336 94.2780 15.4162
v  13.0350 92.8808 30.0864
v  13.0350 86.5936 42.6608
v  21.4180 62.8419 -16.0199
v  21.4180 76.1149 -15.3213
v  13.7336 92.8808 -15.3213
v  -21.5130 55.1575 26.5935
v  -18.0200 55.1575 55.2352
v  -18.0200 71.2249 53.8381
v  -19.4172 77.5121 37.7707
v  -21.5130 73.3206 27.9906
v  -21.5130 62.8419 -16.0199
v  -21.5129 81.0050 18.9091
v  -21.5130 76.1149 -15.3213
v  -13.8286 94.2780 15.4162
v  -13.8286 92.8808 -15.3213
v  -13.8286 78.9092 55.9338
v  -9.6371 69.1291 69.9054
v  9.5421 69.1291 69.9054
v  13.7336 78.9092 55.9338
v  -13.1300 86.5936 42.6608
v  -13.1300 92.8808 30.0864
v  -9.6371 56.5547 69.9054
v  9.5421 56.5547 69.9054
v  -48.3997 0.4730 -24.8094
v  -48.3997 0.4730 36.3920
v  -48.3997 9.3483 36.3920
v  -48.3821 28.3670 -1.9666
v  -48.3997 15.6879 -24.8094
v  -25.6497 0.4730 -24.8094
v  -25.6497 0.4730 36.3920
v  -25.6497 15.6879 -24.8094
v  -25.6497 9.3483 36.3920
v  -25.6321 28.3670 -1.9666
v  25.4950 0.3470 -24.4301
v  25.4950 0.3470 36.7714
v  25.4950 9.2223 36.7714
v  25.5127 28.2410 -1.5873
v  25.4950 15.5619 -24.4301
v  48.2450 0.3470 -24.4301
v  48.2450 0.3470 36.7714
v  48.2450 15.5619 -24.4301
v  48.2450 9.2223 36.7714
v  48.2627 28.2410 -1.5873
v  -10.2157 5.6589 -30.6093
v  -10.2157 5.6491 -21.7942
v  -10.2157 21.1141 -30.7599
v  -2.2552 45.8219 -68.1243
v  -2.2552 41.3972 -68.1292
v  1.9732 45.8219 -68.1243
v  1.9732 41.3972 -68.1292
v  10.5545 21.1141 -30.7599
v  10.5545 5.6491 -21.7942
v  10.5545 5.6589 -30.6093
# 82 vertices

vn 0.0000 -1.0000 -0.0000
vn 0.0000 1.0000 -0.0000
vn 0.0000 -0.8175 0.5760
vn 0.7907 -0.6122 -0.0000
vn -0.9150 0.4029 0.0231
vn -0.9149 0.4029 0.0231
vn -0.7662 -0.6426 -0.0000
vn 0.0000 -0.5021 -0.8648
vn 0.0000 0.0000 -1.0000
vn 0.0000 0.6962 -0.7178
vn 0.9194 0.3927 0.0228
vn 0.0000 0.2784 0.9605
vn 0.9341 0.3570 -0.0000
vn -0.9299 0.3677 -0.0000
vn 0.9959 0.0078 0.0897
vn 0.9959 0.0078 0.0896
vn 0.8538 0.4657 0.2329
vn 0.8538 0.4657 0.2328
vn 1.0000 0.0000 -0.0000
vn 0.8678 0.4965 -0.0226
vn 0.8678 0.4964 -0.0226
vn -0.9959 0.0078 0.0897
vn -0.9959 0.0078 0.0896
vn -1.0000 0.0000 -0.0000
vn -0.8678 0.4965 -0.0226
vn -0.8678 0.4964 -0.0226
vn 0.0000 0.9990 -0.0454
vn 0.0000 0.8192 0.5735
vn 0.0000 0.0526 -0.9986
vn -0.8538 0.4657 0.2329
vn -0.8537 0.4674 0.2298
vn -0.8538 0.4657 0.2328
vn -0.8222 0.3201 0.4707
vn 0.0000 0.9955 0.0948
vn 0.0000 0.8944 0.4472
vn 0.0000 0.8654 0.5010
vn -0.8536 0.4690 0.2266
vn 0.8539 0.4552 0.2524
vn 0.8538 0.4552 0.2524
vn 0.0000 -0.9841 -0.1775
vn -0.8692 0.0428 0.4926
vn 0.0000 -0.9955 0.0948
vn 0.0000 0.0000 1.0000
vn 0.8682 0.0000 0.4961
vn 0.8222 0.3201 0.4707
vn -1.0000 0.0000 -0.0005
vn 1.0000 -0.0001 -0.0000
vn 0.0000 0.8959 0.4442
vn 0.0000 0.8743 -0.4853
vn -0.9287 -0.1860 -0.3209
vn 0.0000 0.0011 -1.0000
vn 0.0000 0.8341 0.5516
vn 0.0000 0.5015 0.8651
vn 0.9749 0.0002 -0.2227
vn 0.0000 -0.7241 -0.6897
vn 0.0000 -1.0000 -0.0011
# 56 vertex normals

vt 0.0411 0.4511 0.0000
vt 0.0411 0.0528 0.0000
vt 0.4394 0.0528 0.0000
vt 0.4394 0.4511 0.0000
vt 0.3523 0.1332 0.0000
vt 0.3523 0.3926 0.0000
vt 0.0928 0.3926 0.0000
vt 0.0928 0.1332 0.0000
vt 0.6732 0.2799 0.0000
vt 0.6732 0.0794 0.0000
vt 0.8737 0.0794 0.0000
vt 0.8737 0.2799 0.0000
vt 0.2402 0.4511 0.0000
vt 0.4296 0.3135 0.0000
vt 0.3573 0.0908 0.0000
vt 0.1232 0.0908 0.0000
vt 0.0508 0.3135 0.0000
vt 0.2611 0.1256 0.0000
vt 0.2611 0.2806 0.0000
vt 0.1061 0.2806 0.0000
vt 0.1061 0.1256 0.0000
vt 0.0744 0.1369 0.0000
vt 0.2772 0.1369 0.0000
vt 0.2772 0.3397 0.0000
vt 0.7595 0.8838 0.0000
vt 0.7595 0.7305 0.0000
vt 0.6557 0.6538 0.0000
vt 0.5519 0.7305 0.0000
vt 0.5519 0.8838 0.0000
vt 0.6557 0.9605 0.0000
vt 0.3681 0.6835 0.0000
vt 0.2249 0.7487 0.0000
vt 0.2249 0.8792 0.0000
vt 0.3681 0.9444 0.0000
vt 0.5113 0.8792 0.0000
vt 0.5113 0.7487 0.0000
vt 0.8324 0.0986 0.0000
vt 0.7145 0.0986 0.0000
vt 0.6781 0.2107 0.0000
vt 0.7734 0.2799 0.0000
vt 0.8688 0.2107 0.0000
vt 0.6102 0.3749 0.0000
vt 0.6102 0.0332 0.0000
vt 0.9520 0.0332 0.0000
vt 0.9520 0.3749 0.0000
vt 0.9740 0.0761 0.0000
vt 0.9740 0.4756 0.0000
vt 0.5746 0.4756 0.0000
vt 0.5746 0.0761 0.0000
# 49 texture coords

o Porygon
g Porygon
usemtl 02___Default
s 1
f 1/1/1 2/2/1 3/3/1 
f 3/3/1 4/4/1 1/1/1 
f 5/5/2 6/6/2 7/7/2 
f 7/7/2 8/8/2 5/5/2 
f 9/9/3 10/10/3 1/11/3 
f 1/11/3 4/12/3 9/9/3 
f 11/13/4 9/14/4 4/15/4 
f 11/13/4 4/15/4 3/16/4 
f 11/13/4 3/16/4 12/17/4 
f 13/10/5 14/11/5 10/12/6 
f 15/13/7 16/14/7 2/15/7 
f 15/13/7 2/15/7 1/16/7 
f 15/13/7 1/16/7 10/17/7 
f 2/4/8 16/1/8 12/2/8 
f 12/2/8 3/3/8 2/4/8 
f 17/1/9 18/2/9 12/3/9 
f 12/3/9 16/4/9 17/1/9 
f 7/4/10 19/1/10 20/2/10 
f 20/2/10 8/3/10 7/4/10 
f 20/1/10 19/2/10 18/3/10 
f 18/3/10 17/4/10 20/1/10 
f 21/10/11 22/11/11 9/12/11 
f 13/18/12 22/19/12 6/20/12 
f 6/20/12 5/21/12 13/18/12 
f 9/12/12 22/9/12 13/10/12 
f 13/10/12 10/11/12 9/12/12 
f 12/14/13 18/15/13 19/16/13 
f 12/14/13 19/16/13 21/17/13 
f 12/14/13 21/17/13 11/13/13 
f 21/22/13 9/23/13 11/24/13 
f 7/15/11 6/16/11 22/17/11 
f 22/17/11 21/13/11 19/14/11 
f 7/15/11 22/17/11 19/14/11 
f 15/2/14 10/3/14 14/4/14 
f 20/14/14 17/15/14 16/16/14 
f 20/14/14 16/16/14 15/17/14 
f 20/14/14 15/17/14 14/13/14 
f 8/15/5 20/16/5 14/17/5 
f 14/17/5 13/13/5 5/14/5 
f 8/15/5 14/17/5 5/14/5 
f 23/14/15 24/15/15 25/16/16 
f 23/14/15 25/16/16 26/17/16 
f 23/14/15 26/17/16 27/13/16 
f 24/25/17 28/26/17 29/27/18 
f 24/25/17 29/27/18 30/28/18 
f 24/25/17 30/28/18 31/29/18 
f 24/25/17 31/29/18 25/30/18 
f 32/14/19 33/15/19 28/16/19 
f 32/14/19 28/16/19 24/17/19 
f 32/14/19 24/17/19 23/13/19 
f 29/1/20 28/2/21 33/3/21 
f 33/3/21 34/4/20 29/1/20 
f 35/15/22 36/16/23 37/17/22 
f 37/17/22 38/13/23 39/14/22 
f 35/15/22 37/17/22 39/14/22 
f 40/15/24 35/16/24 39/17/24 
f 39/17/24 41/13/24 42/14/24 
f 40/15/24 39/17/24 42/14/24 
f 43/1/25 44/2/25 42/3/26 
f 42/3/26 41/4/26 43/1/25 
f 44/1/27 43/2/27 29/3/27 
f 29/3/27 34/4/27 44/1/27 
f 45/9/28 46/10/28 47/11/28 
f 47/11/28 48/12/28 45/9/28 
f 33/1/9 42/2/9 44/3/9 
f 44/3/9 34/4/9 33/1/9 
f 40/1/29 42/2/29 33/3/29 
f 33/3/29 32/4/29 40/1/29 
f 39/31/30 38/32/31 49/33/31 
f 49/33/31 50/34/32 43/35/32 
f 39/31/30 49/33/31 43/35/32 
f 39/31/30 43/35/32 41/36/30 
f 46/10/33 45/11/33 37/12/33 
f 29/1/34 43/2/34 50/3/34 
f 50/3/34 30/4/34 29/1/34 
f 30/1/35 50/2/35 49/3/35 
f 49/3/35 31/4/35 30/1/35 
f 31/1/36 49/2/36 45/3/36 
f 45/3/36 48/4/36 31/1/36 
f 45/4/37 49/1/31 38/2/31 
f 38/2/31 37/3/37 45/4/37 
f 25/1/38 31/2/39 48/3/39 
f 48/3/39 26/4/39 25/1/38 
f 23/1/40 35/2/40 40/3/40 
f 40/3/40 32/4/40 23/1/40 
f 27/1/1 36/2/1 35/3/1 
f 35/3/1 23/4/1 27/1/1 
f 36/9/41 51/10/41 46/11/41 
f 46/11/41 37/12/41 36/9/41 
f 36/9/42 27/10/42 52/11/42 
f 52/11/42 51/12/42 36/9/42 
f 51/9/43 52/10/43 47/11/43 
f 47/11/43 46/12/43 51/9/43 
f 47/12/44 52/9/44 27/10/44 
f 27/10/44 26/11/44 47/12/44 
f 48/10/45 47/11/45 26/12/45 
f 53/37/46 54/38/46 55/39/46 
f 55/39/46 56/40/46 57/41/46 
f 53/37/46 55/39/46 57/41/46 
f 54/9/1 53/10/1 58/11/1 
f 58/11/1 59/12/1 54/9/1 
f 53/9/9 57/10/9 60/11/9 
f 60/11/9 58/12/9 53/9/9 
f 54/9/43 59/10/43 61/11/43 
f 61/11/43 55/12/43 54/9/43 
f 62/41/47 61/37/47 59/38/47 
f 62/41/47 59/38/47 58/39/47 
f 62/41/47 58/39/47 60/40/47 
f 62/9/48 56/10/48 55/11/48 
f 55/11/48 61/12/48 62/9/48 
f 56/9/49 62/10/49 60/11/49 
f 60/11/49 57/12/49 56/9/49 
f 63/37/46 64/38/46 65/39/46 
f 65/39/46 66/40/46 67/41/46 
f 63/37/46 65/39/46 67/41/46 
f 64/9/1 63/10/1 68/11/1 
f 68/11/1 69/12/1 64/9/1 
f 63/9/9 67/10/9 70/11/9 
f 70/11/9 68/12/9 63/9/9 
f 64/9/43 69/10/43 71/11/43 
f 71/11/43 65/12/43 64/9/43 
f 72/41/19 71/37/19 69/38/19 
f 72/41/19 69/38/19 68/39/19 
f 72/41/19 68/39/19 70/40/19 
f 72/9/48 66/10/48 65/11/48 
f 65/11/48 71/12/48 72/9/48 
f 66/9/49 72/10/49 70/11/49 
f 70/11/49 67/12/49 66/9/49 
f 73/37/50 74/38/50 75/39/50 
f 75/39/50 76/40/50 77/41/50 
f 73/37/50 75/39/50 77/41/50 
f 77/42/51 76/43/51 78/44/51 
f 78/44/51 79/45/51 77/42/51 
f 75/9/52 80/10/52 78/11/52 
f 78/11/52 76/12/52 75/9/52 
f 74/46/53 81/47/53 80/48/53 
f 80/48/53 75/49/53 74/46/53 
f 80/41/54 81/37/54 82/38/54 
f 80/41/54 82/38/54 79/39/54 
f 80/41/54 79/39/54 78/40/54 
f 82/9/55 73/10/55 77/11/55 
f 77/11/55 79/12/55 82/9/55 
f 73/9/56 82/10/56 81/11/56 
f 81/11/56 74/12/56 73/9/56 
# 144 faces

